<?xml version="1.0" encoding="UTF-8" standalone="no"?>
<!DOCTYPE svg PUBLIC "-//W3C//DTD SVG 1.1//EN"
 "http://www.w3.org/Graphics/SVG/1.1/DTD/svg11.dtd">
<!-- Generated by graphviz version 2.44.1 (20200629.0846)
 -->
<!-- Title: dependencies Pages: 1 -->
<svg width="705pt" height="284pt"
 viewBox="0.00 0.00 705.00 284.00" xmlns="http://www.w3.org/2000/svg" xmlns:xlink="http://www.w3.org/1999/xlink">
<g id="graph0" class="graph" transform="scale(1 1) rotate(0) translate(4 280)">
<title>dependencies</title>
<polygon fill="white" stroke="transparent" points="-4,4 -4,-280 701,-280 701,4 -4,4"/>
<text text-anchor="start" x="327.51" y="-42.4" font-family="sans-serif" font-weight="bold" font-size="14.00">Legend</text>
<polygon fill="#ffffb3" stroke="transparent" points="114.5,-10 114.5,-30 134.5,-30 134.5,-10 114.5,-10"/>
<text text-anchor="start" x="138.13" y="-15.4" font-family="sans-serif" font-size="14.00"> &#160;Declarations</text>
<polygon fill="#8dd3c7" stroke="transparent" points="227.5,-10 227.5,-30 247.5,-30 247.5,-10 227.5,-10"/>
<text text-anchor="start" x="251.23" y="-15.4" font-family="sans-serif" font-size="14.00"> &#160;Module</text>
<polygon fill="#80b1d3" stroke="transparent" points="313.5,-10 313.5,-30 333.5,-30 333.5,-10 313.5,-10"/>
<text text-anchor="start" x="337.28" y="-15.4" font-family="sans-serif" font-size="14.00"> &#160;Bootstrap</text>
<polygon fill="#fdb462" stroke="transparent" points="410.5,-10 410.5,-30 430.5,-30 430.5,-10 410.5,-10"/>
<text text-anchor="start" x="434.17" y="-15.4" font-family="sans-serif" font-size="14.00"> &#160;Providers</text>
<polygon fill="#fb8072" stroke="transparent" points="506.5,-10 506.5,-30 526.5,-30 526.5,-10 506.5,-10"/>
<text text-anchor="start" x="530.23" y="-15.4" font-family="sans-serif" font-size="14.00"> &#160;Exports</text>
<g id="clust1" class="cluster">
<title>cluster_NgxDragResizeModule</title>
<polygon fill="none" stroke="black" stroke-dasharray="1,5" points="8,-70 8,-268 689,-268 689,-70 8,-70"/>
</g>
<g id="clust2" class="cluster">
<title>cluster_NgxDragResizeModule_declarations</title>
<polygon fill="none" stroke="black" points="25,-78 25,-130 675,-130 675,-78 25,-78"/>
</g>
<g id="clust8" class="cluster">
<title>cluster_NgxDragResizeModule_exports</title>
<polygon fill="none" stroke="black" points="16,-208 16,-260 681,-260 681,-208 16,-208"/>
</g>
<!-- NgxDragDirective -->
<g id="node1" class="node">
<title>NgxDragDirective</title>
<polygon fill="#ffffb3" stroke="black" points="667.17,-122 546.83,-122 546.83,-86 667.17,-86 667.17,-122"/>
<text text-anchor="middle" x="607" y="-99.8" font-family="Times,serif" font-size="14.00">NgxDragDirective</text>
</g>
<!-- NgxDragResizeModule -->
<g id="node5" class="node">
<title>NgxDragResizeModule</title>
<polygon fill="#8dd3c7" stroke="black" points="362.45,-187 359.45,-191 338.45,-191 335.45,-187 213.55,-187 213.55,-151 362.45,-151 362.45,-187"/>
<text text-anchor="middle" x="288" y="-164.8" font-family="Times,serif" font-size="14.00">NgxDragResizeModule</text>
</g>
<!-- NgxDragDirective&#45;&gt;NgxDragResizeModule -->
<g id="edge1" class="edge">
<title>NgxDragDirective&#45;&gt;NgxDragResizeModule</title>
<path fill="none" stroke="black" d="M627.78,-122.02C627.78,-139.37 627.78,-163 627.78,-163 627.78,-163 372.57,-163 372.57,-163"/>
<polygon fill="black" stroke="black" points="372.57,-159.5 362.57,-163 372.57,-166.5 372.57,-159.5"/>
</g>
<!-- NgxDragHandleDirective -->
<g id="node2" class="node">
<title>NgxDragHandleDirective</title>
<polygon fill="#ffffb3" stroke="black" points="529.1,-122 368.9,-122 368.9,-86 529.1,-86 529.1,-122"/>
<text text-anchor="middle" x="449" y="-99.8" font-family="Times,serif" font-size="14.00">NgxDragHandleDirective</text>
</g>
<!-- NgxDragHandleDirective&#45;&gt;NgxDragResizeModule -->
<g id="edge2" class="edge">
<title>NgxDragHandleDirective&#45;&gt;NgxDragResizeModule</title>
<path fill="none" stroke="black" d="M368.69,-104C361.36,-104 356.61,-104 356.61,-104 356.61,-104 356.61,-140.89 356.61,-140.89"/>
<polygon fill="black" stroke="black" points="353.11,-140.89 356.61,-150.89 360.11,-140.89 353.11,-140.89"/>
</g>
<!-- NgxResizeDirective -->
<g id="node3" class="node">
<title>NgxResizeDirective</title>
<polygon fill="#ffffb3" stroke="black" points="350.51,-122 221.49,-122 221.49,-86 350.51,-86 350.51,-122"/>
<text text-anchor="middle" x="286" y="-99.8" font-family="Times,serif" font-size="14.00">NgxResizeDirective</text>
</g>
<!-- NgxResizeDirective&#45;&gt;NgxDragResizeModule -->
<g id="edge3" class="edge">
<title>NgxResizeDirective&#45;&gt;NgxDragResizeModule</title>
<path fill="none" stroke="black" d="M286,-122.11C286,-122.11 286,-140.99 286,-140.99"/>
<polygon fill="black" stroke="black" points="282.5,-140.99 286,-150.99 289.5,-140.99 282.5,-140.99"/>
</g>
<!-- NgxResizeHandleDirective -->
<g id="node4" class="node">
<title>NgxResizeHandleDirective</title>
<polygon fill="#ffffb3" stroke="black" points="202.93,-122 33.07,-122 33.07,-86 202.93,-86 202.93,-122"/>
<text text-anchor="middle" x="118" y="-99.8" font-family="Times,serif" font-size="14.00">NgxResizeHandleDirective</text>
</g>
<!-- NgxResizeHandleDirective&#45;&gt;NgxDragResizeModule -->
<g id="edge4" class="edge">
<title>NgxResizeHandleDirective&#45;&gt;NgxDragResizeModule</title>
<path fill="none" stroke="black" d="M203.15,-104C211.74,-104 217.39,-104 217.39,-104 217.39,-104 217.39,-140.89 217.39,-140.89"/>
<polygon fill="black" stroke="black" points="213.89,-140.89 217.39,-150.89 220.89,-140.89 213.89,-140.89"/>
</g>
<!-- NgxDragDirective  -->
<g id="node6" class="node">
<title>NgxDragDirective </title>
<polygon fill="#fb8072" stroke="black" points="672.67,-252 549.33,-252 549.33,-216 672.67,-216 672.67,-252"/>
<text text-anchor="middle" x="611" y="-229.8" font-family="Times,serif" font-size="14.00">NgxDragDirective </text>
</g>
<!-- NgxDragResizeModule&#45;&gt;NgxDragDirective  -->
<g id="edge5" class="edge">
<title>NgxDragResizeModule&#45;&gt;NgxDragDirective </title>
<path fill="none" stroke="black" stroke-dasharray="5,2" d="M362.66,-175C451.65,-175 588.47,-175 588.47,-175 588.47,-175 588.47,-205.98 588.47,-205.98"/>
<polygon fill="black" stroke="black" points="584.97,-205.98 588.47,-215.98 591.97,-205.98 584.97,-205.98"/>
</g>
<!-- NgxDragHandleDirective  -->
<g id="node7" class="node">
<title>NgxDragHandleDirective </title>
<polygon fill="#fb8072" stroke="black" points="531.1,-252 366.9,-252 366.9,-216 531.1,-216 531.1,-252"/>
<text text-anchor="middle" x="449" y="-229.8" font-family="Times,serif" font-size="14.00">NgxDragHandleDirective </text>
</g>
<!-- NgxDragResizeModule&#45;&gt;NgxDragHandleDirective  -->
<g id="edge6" class="edge">
<title>NgxDragResizeModule&#45;&gt;NgxDragHandleDirective </title>
<path fill="none" stroke="black" stroke-dasharray="5,2" d="M355.49,-187.11C355.49,-206.34 355.49,-234 355.49,-234 355.49,-234 356.6,-234 356.6,-234"/>
<polygon fill="black" stroke="black" points="356.58,-237.5 366.58,-234 356.58,-230.5 356.58,-237.5"/>
</g>
<!-- NgxResizeDirective  -->
<g id="node8" class="node">
<title>NgxResizeDirective </title>
<polygon fill="#fb8072" stroke="black" points="348.51,-252 215.49,-252 215.49,-216 348.51,-216 348.51,-252"/>
<text text-anchor="middle" x="282" y="-229.8" font-family="Times,serif" font-size="14.00">NgxResizeDirective </text>
</g>
<!-- NgxDragResizeModule&#45;&gt;NgxResizeDirective  -->
<g id="edge7" class="edge">
<title>NgxDragResizeModule&#45;&gt;NgxResizeDirective </title>
<path fill="none" stroke="black" stroke-dasharray="5,2" d="M282,-187.11C282,-187.11 282,-205.99 282,-205.99"/>
<polygon fill="black" stroke="black" points="278.5,-205.99 282,-215.99 285.5,-205.99 278.5,-205.99"/>
</g>
<!-- NgxResizeHandleDirective  -->
<g id="node9" class="node">
<title>NgxResizeHandleDirective </title>
<polygon fill="#fb8072" stroke="black" points="197.93,-252 24.07,-252 24.07,-216 197.93,-216 197.93,-252"/>
<text text-anchor="middle" x="111" y="-229.8" font-family="Times,serif" font-size="14.00">NgxResizeHandleDirective </text>
</g>
<!-- NgxDragResizeModule&#45;&gt;NgxResizeHandleDirective  -->
<g id="edge8" class="edge">
<title>NgxDragResizeModule&#45;&gt;NgxResizeHandleDirective </title>
<path fill="none" stroke="black" stroke-dasharray="5,2" d="M213.54,-169C166.82,-169 115.38,-169 115.38,-169 115.38,-169 115.38,-205.89 115.38,-205.89"/>
<polygon fill="black" stroke="black" points="111.88,-205.89 115.38,-215.89 118.88,-205.89 111.88,-205.89"/>
</g>
</g>
</svg>
